PathFileType	4	(X/Y/Z)	SUBJ59_0_static_RCNL2025.trc
DataRate	CameraRate	NumFrames	NumMarkers	Units	OrigDataRate	OrigDataStartFrame	OrigNumFrames
100	100	7	25	mm	100	15	72
Frame#	Time	R_Shoulder			L_Shoulder			C7			J_Notch			R_Elbow			L_Elbow			R_Wrist			L_Wrist			R_Asis			L_Asis			Sacral			Thoracic			Sternum			R_Thigh_Lateral			R_Knee_Lateral			R_Shank_Lateral			R_Ankle_Lateral			R_Heel			R_Toe			L_Thigh_Lateral			L_Knee_Lateral			L_Shank_Lateral			L_Ankle_Lateral			L_Heel			L_Toe		
		X1	Y1	Z1	X2	Y2	Z2	X3	Y3	Z3	X4	Y4	Z4	X5	Y5	Z5	X6	Y6	Z6	X7	Y7	Z7	X8	Y8	Z8	X9	Y9	Z9	X10	Y10	Z10	X11	Y11	Z11	X12	Y12	Z12	X13	Y13	Z13	X14	Y14	Z14	X15	Y15	Z15	X16	Y16	Z16	X17	Y17	Z17	X18	Y18	Z18	X19	Y19	Z19	X20	Y20	Z20	X21	Y21	Z21	X22	Y22	Z22	X23	Y23	Z23	X24	Y24	Z24	X25	Y25	Z25
15	0.14000000	-246.323090	1457.952148	-16.391590	-258.748901	1489.032471	-419.163086	-355.597504	1557.317139	-209.289185	-193.320679	1466.059204	-223.221039	-285.858368	1141.340576	70.892120	-245.978149	1145.948730	-516.026184	-257.145615	862.863556	73.832140	-184.957741	887.769867	-486.132324	-179.979874	997.800537	-99.269417	-179.728943	995.339172	-327.910400	-395.475922	1032.092407	-218.216080	-412.105164	1341.036499	-235.560547	-131.616638	1275.462524	-233.518097	-291.676575	608.974243	-11.312122	-303.910858	517.929321	-63.164009	-345.693848	321.676453	18.935137	-375.479980	69.439156	-88.344116	-411.055695	57.374416	-135.600769	-211.922699	44.250851	-120.123917	-303.077728	612.083618	-402.686096	-307.217377	503.811798	-343.120544	-343.210846	309.125641	-404.748840	-372.791321	81.915527	-322.190430	-413.705200	58.827381	-267.002472	-209.774933	39.215973	-295.496796
16	0.15000000	-246.369156	1457.973389	-16.376156	-258.746368	1489.030884	-419.185974	-355.685760	1557.304199	-209.226883	-193.308258	1466.070801	-223.242386	-285.871552	1141.290283	70.879593	-245.967316	1145.875122	-516.071289	-257.080544	862.866486	73.822378	-185.007111	887.789154	-486.223801	-179.986374	997.826843	-99.225731	-179.738205	995.327148	-327.886078	-395.569946	1032.113403	-218.154922	-412.101807	1340.989624	-235.578842	-131.690140	1275.405884	-233.417023	-291.692322	609.201111	-11.253084	-303.910065	517.926880	-63.162949	-345.724274	321.674286	18.981289	-375.495605	69.398643	-88.338135	-411.093506	57.312836	-135.557449	-211.994339	44.247486	-120.057693	-303.099670	612.027466	-402.669403	-307.226440	503.821930	-343.123993	-343.165344	309.099884	-404.718109	-372.757355	81.928146	-322.180542	-413.728607	58.656773	-267.024963	-209.756500	39.221947	-295.494629
17	0.16000000	-246.459244	1457.998291	-16.333471	-258.752502	1489.037964	-419.171326	-355.756500	1557.328247	-209.284470	-193.277298	1466.143188	-223.245010	-285.895996	1141.348755	70.911537	-246.040268	1145.962646	-516.053955	-257.119820	862.854401	73.854698	-184.994827	887.840302	-486.323318	-179.909424	997.887207	-99.244553	-179.798737	995.336121	-327.832062	-395.592896	1032.047607	-218.132233	-412.111816	1340.962769	-235.552338	-131.700653	1275.461548	-233.428558	-291.760864	609.134644	-11.217062	-303.919189	517.924866	-63.163792	-345.742035	321.700531	18.997198	-375.504669	69.451965	-88.318626	-411.070648	57.338348	-135.467377	-212.026505	44.232887	-120.060684	-303.104309	612.087830	-402.634613	-307.203613	503.971466	-343.102264	-343.212982	309.112915	-404.748260	-372.752014	81.936363	-322.191864	-413.721161	58.666912	-267.026520	-209.809158	39.194965	-295.448578
18	0.17000000	-246.568985	1458.028564	-16.382412	-258.777740	1489.063110	-419.097107	-355.757172	1557.374023	-209.270111	-193.338013	1466.161987	-223.181381	-285.999451	1141.451782	70.995262	-246.048904	1146.037231	-515.967834	-257.264374	862.927063	73.933458	-185.064857	887.834961	-486.317810	-179.895477	997.979919	-99.312363	-179.815201	995.333740	-327.820953	-395.591370	1032.070923	-218.119705	-412.175262	1340.989990	-235.607681	-131.760193	1275.469727	-233.365204	-291.842773	609.217163	-11.196092	-304.038910	517.889771	-63.178638	-345.731689	321.707489	18.970169	-375.616760	69.370193	-88.323547	-411.099304	57.326664	-135.539154	-211.997650	44.222794	-120.063126	-303.127075	612.085022	-402.610321	-307.188019	504.000977	-343.094666	-343.295807	309.071289	-404.648468	-372.809906	81.958298	-322.129333	-413.721985	58.672421	-267.014801	-209.804733	39.202934	-295.454132
19	0.18000000	-246.659439	1458.081055	-16.307673	-258.779572	1489.061279	-419.101837	-355.834076	1557.383179	-209.217606	-193.480377	1466.125244	-223.163849	-286.091278	1141.432251	70.943474	-246.052826	1146.035889	-515.955933	-257.240051	862.908112	73.979515	-185.135422	887.810059	-486.333038	-180.033615	997.841553	-99.210732	-179.912170	995.396912	-327.819519	-395.588715	1032.068848	-218.123444	-412.256073	1341.001587	-235.562881	-131.773270	1275.446899	-233.330551	-291.778534	609.001526	-11.378435	-304.099091	517.848206	-63.187485	-345.706055	321.793274	18.837971	-375.498901	69.448921	-88.322784	-411.171539	57.367889	-135.495987	-212.033295	44.202385	-120.094925	-303.129608	612.121704	-402.677551	-307.193512	503.940887	-343.095184	-343.278839	309.139984	-404.746338	-372.764496	81.965752	-322.145020	-413.718719	58.709961	-267.005310	-209.806824	39.237400	-295.434937
20	0.19000000	-246.676605	1458.093018	-16.299023	-258.832336	1489.037598	-419.091003	-355.842255	1557.384521	-209.212158	-193.505356	1466.129639	-223.160355	-285.993927	1141.432129	70.983170	-246.110947	1146.013794	-515.989441	-257.221016	862.936066	73.976265	-185.239494	887.764313	-486.354218	-180.105804	997.826599	-99.316650	-179.938858	995.338989	-327.869812	-395.577057	1032.151123	-218.139511	-412.260925	1340.981079	-235.555573	-131.744781	1275.528320	-233.309601	-291.868896	609.103821	-11.267175	-304.208282	517.855530	-63.142742	-345.654877	321.736206	18.832092	-375.488647	69.429527	-88.329025	-411.106323	57.330338	-135.542450	-211.987167	44.210503	-120.089874	-303.216522	612.082275	-402.676086	-307.295349	503.820831	-343.084076	-343.267395	309.133545	-404.756104	-372.732971	81.890396	-322.188812	-413.722870	58.682865	-267.019440	-209.755539	39.201775	-295.510956
21	0.20000000	-246.753311	1458.119019	-16.267036	-258.843567	1489.001221	-419.070312	-355.892670	1557.356567	-209.308533	-193.483795	1466.126587	-223.175827	-285.988373	1141.444458	70.987839	-246.134613	1145.983154	-515.937500	-257.349098	863.004425	74.079554	-185.268547	887.749939	-486.416718	-180.048691	997.830750	-99.301994	-179.935608	995.328857	-327.878906	-395.711823	1032.144287	-218.180756	-412.317291	1341.002808	-235.628616	-131.734863	1275.537354	-233.311615	-291.929626	609.171021	-11.265095	-304.301300	517.819458	-63.197777	-345.711548	321.703613	18.967543	-375.488190	69.438591	-88.333382	-411.097321	57.309662	-135.551407	-211.977280	44.221157	-120.061722	-303.239929	612.070374	-402.703552	-307.323822	503.774963	-343.048065	-343.332306	309.086304	-404.727264	-372.738708	81.909256	-322.190216	-413.700745	58.593838	-267.080688	-209.768387	39.262295	-295.475677
